<svg xmlns="http://www.w3.org/2000/svg" viewBox="0 0 110.49 110.85" fill="#855322" fill-rule="evenodd" xmlns:v="https://vecta.io/nano"><path d="M76.86 12.23a4.72 4.72 0 0 0 .68 2.24A7.17 7.17 0 0 0 79 16.29l2.24 2.13h0 0l1 1.12c.5.63.92 1.32 1.36 2a22.62 22.62 0 0 1 1.4 2.7 13.56 13.56 0 0 1 .7 2l.83 3.16a51.68 51.68 0 0 1 .82 7.14v1.26a21.23 21.23 0 0 0 .45 3.59 10.07 10.07 0 0 1-.31 6.16 29.53 29.53 0 0 1-2 5c-.25.47-.33.76-.79 1.54a19.88 19.88 0 0 1-2.53 3.1l-1.38 1.39c-.18.18-.33.28-.51.46l-5 4.73c-.11.1-.15.11-.26.22a2.83 2.83 0 0 1-.25.24l-1 .85a26.13 26.13 0 0 1-2.41 1.81c-.56.39-1.17.71-1.74 1.08l-2.1 1.16a17.57 17.57 0 0 1-2.27 1 25.46 25.46 0 0 1-4.36 1.23 30.28 30.28 0 0 1-5.16.51l-3.42-.22a40.08 40.08 0 0 1-7.45-1.77l-2.61-1c-.13-.07-.2-.08-.31-.13a2.67 2.67 0 0 1-.34-.15l-.65-.27-1.26-.59-1.23-.6-1.19-.67A25.08 25.08 0 0 1 35.05 65l-1-.8a16.66 16.66 0 0 1-3.38-4l-.35-.57c-.14-.2-.25-.39-.35-.57l-.15-.28a2.84 2.84 0 0 1-.18-.31l-2.45-4.93-.59-1.26A25 25 0 0 1 25.23 49l-.61-2.16a11.6 11.6 0 0 1 .14-6 12.24 12.24 0 0 1 .46-1.29l1.47-3.77a11.73 11.73 0 0 0 .52-3.78 6.76 6.76 0 0 0-.47-3 4.28 4.28 0 0 1-.46-1.74c-.09-1.94.29-3.73.29-5.68 0-1.23-1.26-.79-1.83-.37l-1 .7a5.24 5.24 0 0 0-1.45 1.94 28.32 28.32 0 0 0-2.23 8l-.27 1.43-.41 2.11a26.42 26.42 0 0 1-1.54 4.49c-.5 1.24-1 2.83-.36 4.08a3.55 3.55 0 0 0 .28.55l.66 1a11 11 0 0 1 .81 1.77L20 49.5c1.3 3.48 2.14 2.34 3 6l.47 2.06c.08.25.11.45.18.69a16.53 16.53 0 0 0 1 2.41l.31.51c.1.15.24.32.38.5l.75 1a14.89 14.89 0 0 0 2.89 3 23.29 23.29 0 0 0 2.44 1.88l7 4.07 1.78.8a31.13 31.13 0 0 0 7.92 2.26 6.49 6.49 0 0 0 .77.11l2.43.14a2.72 2.72 0 0 0 .76 0l2.44-.13c1.95-.2 3.87-.62 5.82-1l4.19-1 2.85-.55 1.47-.23a39.42 39.42 0 0 0 4.4-.69 4.2 4.2 0 0 0 1.38-.71l.26-.18L78 67.6a19.23 19.23 0 0 0 1.91-1.92l1.45-1.56.81-.89 1.55-1.85c.27-.3.5-.63.76-.94l1.46-1.94.37-.5a56.27 56.27 0 0 0 3.59-5.78l.59-1.11 1.08-2.37.48-1.22c.34-.84.59-1.67.85-2.55a6.13 6.13 0 0 0 .37-2.83c-.13-.48-.48-.61-1-.73-1.15-.27-1 .07-1.22-2.23l-.34-3.06-.61-4.49a44.16 44.16 0 0 0-1.62-6.92l-.22-.6-.73-1.85c-.09-.23-.18-.37-.26-.57a25.94 25.94 0 0 0-2.19-3.83l-1.06-1.45a11 11 0 0 0-1.63-1.78l-.23-.2-.24-.2a13.74 13.74 0 0 0-3-2.08 2.86 2.86 0 0 0-1.34-.4c-.37 0-.73.12-.73.48zm-12.33 35.3c0 2 .5 1.48 0 4.42l-.66 4.06c-.49 1.49-2.35 1.87-3.72 2.15a23.15 23.15 0 0 1-4 .25c-.29 0-.35 0-.62-.06h-1.32c-.48 0-.86-.09-1.18-.13l-3.52-.51a8.88 8.88 0 0 1-2.16-.56c-.74-.36-.79-.71-.9-1.77L46.09 53l-.8-4.59-.41-2.26-2-11.45a14.2 14.2 0 0 0-.72-3.3c-.54-.76-2.33-.46-2.33.24a6.51 6.51 0 0 0 .17 1.17l.48 2.34 2 9.42c.24 1.16.48 3.75.66 5.07l.63 5 .49 3.83c.32 2 1.27 2.32 3.09 2.59l5.13.6h.63 2.63a38.32 38.32 0 0 0 8-.87c.76-.19 1.47-.22 2-1a8.14 8.14 0 0 0 .52-2.44c0-.41.13-.84.2-1.25l.68-3.79.21-1.3 1-6.46.36-2.61c0-.21 0-.47.08-.64l.65-4.59.37-2.6.36-2.6c.08-.64.51-1.71-1.07-1.71-1.38 0-1.13 1.57-1.26 2.19l-.31 1.79-1.22 5.67-.64 3.53c-.15.8-.58 2.56-.83 3.3a3.8 3.8 0 0 0-.26 1.15zm15.24 48.99h3.5c.22 0 .33-.63.43-1L85.21 90l.58-2.23c.16.11 0 0 .19.49l2 7.23c.13.45.17 1 .44 1H92c.27 0 .32-.49.39-.72l2.21-8.09.48-1.8.95-3.67H92c0 .29-1.69 7.4-1.92 8.33a1.54 1.54 0 0 0-.07.27l-.08.26-2.24-8.39c0-.18 0-.5-.24-.5h-3.31c0 .23-1 4-1.16 4.47l-.59 2.22-.58 2.25h-.09A6.66 6.66 0 0 0 81.5 90l-.78-3.35-.53-2.18-.51-2.26h-4l3.79 14c.07.16.12.25.33.25zM24 96.47c.49.11 2.91 0 3.59 0 .2 0 .16-.18.15-.39v-8a1.89 1.89 0 0 1 .33.5l1.68 2.93.15.28 2.1 3.8.3.53c.11.2.18.4.47.4h3.69V82.24h-3.77v8.26c-.18-.13-2.67-4.62-3-5.23l-1.5-2.62c-.1-.2-.16-.41-.42-.41H24.1c-.24 0-.15.51-.15.73v13.5zm24.61 0a26.63 26.63 0 0 0 3.79 0v-5.78h1.7c0 .19.1.14.21.33l.2.37 2.62 4.82c.07.12.13.31.27.31H61c.24 0 .06-.22 0-.37L59.31 93l-.12-.21-1.58-2.89c-.25-.44-.4-.48-.19-1a4.77 4.77 0 0 1 .25-.43l.51-.9 1-1.75 2-3.6h-3.93a4 4 0 0 1-.37.7l-2.56 4.53c-.06.13-.11.31-.27.31H52.4v-5.52h-3.79v14.23zm54.07-9.81c0 .24 1 2.94 1.11 3.41l.21.57.19.59h-3.11c.09-.36.25-.77.37-1.14l1-2.9c.07-.18.12-.43.25-.53zm-7.28 9.86h3.69c.16 0 .22-.28.32-.6l.49-1.36c.07-.21.14-.61.36-.61H105c.26 0 .48.87.62 1.26l.38 1c0 .14 0 .27.21.27h3.74c.23 0 .12-.23.06-.36l-5.14-13.55c0-.14-.1-.37-.26-.37h-3.93c-.18 0-.24.42-.4.82l-1.38 3.62-.34.93-2.4 6.34-.88 2.28c-.08.18-.14.29.15.29zM69 86.66c.13.1.16.32.22.51l.11.28 1.27 3.78h-3.11l.93-2.81a16.35 16.35 0 0 0 .58-1.76zm-7.38 9.86h3.88c.2 0 .18-.24.32-.6l.49-1.36c.1-.3.17-.61.36-.61h4.71c.27 0 .45.82.63 1.26l.36 1c0 .15 0 .27.22.27h3.74c.28 0 0-.57-.2-1l-2.86-7.63-.41-1-.41-1.09-1.23-3.26c-.13-.38-.24-.26-1.25-.26H67l-1.2 3.12-1.19 3.08-1.67 4.49-.34.88-.66 1.77a3.48 3.48 0 0 0-.32.94zM.41 96.47c.49.11 2.91 0 3.59 0 .22 0 .15-.35.15-.58v-4.57c0-.79-.29-.63 1.7-.63.15 0 .19.17.24.29l2.25 4.16.21.38c.08.16.14.22.21.37.19.36.25.63.53.63h3.55c.29 0-.05-.48-.25-.82l-1-1.79-.25-.43-.74-1.35-1.5-2.72c-.11-.2.13-.47.34-.89l2.78-4.88.26-.47a4.85 4.85 0 0 0 .48-.93H9.05l-.55 1.05-.22.36-.38.69-.4.72-1.2 2.1c-.41.82-.41.62-2.15.62v-5.54H.41v14.23zm48.1-67.15h2.09a8.61 8.61 0 0 1 1.46 0c.32 0 .42.05.72.05a40.22 40.22 0 0 0 5.47-.65 16.26 16.26 0 0 1 4-.37l2.3.07.72-.11 2.81-.44c.56-.08.9-.08.79-.75s0-.82-.39-1.26-1.6-.23-2.15-.23h-.83l-3.77.26-2.26.22-4.5.4c-.34 0-.46-.05-.78-.06h-.82l-1.56-.05c-.33 0-.44-.05-.77-.05h-.83c-.33 0-.44-.05-.72-.05h-.83l-1.59-.06c-.9-.12-2.19 0-3.13-.13l-1.59-.05c-.61 0-2.54-.24-2.62.54a1.77 1.77 0 0 0 .4 1.24 20.49 20.49 0 0 0 3.06 1l1.41.24a30.26 30.26 0 0 0 3.86.26zM14.2 85c0 .11 0 .15.14.15H16v8.45h-1.7c-.11 0-.14 0-.14.14v2.67c0 .11 0 .15.14.15h7.09a.19.19 0 0 0 .19-.2v-2.51c0-.15 0-.29-.19-.29h-1.61v-8.45h1.7c.11 0 .14 0 .14-.15v-2.57c0-.11 0-.15-.14-.15H14.2V85zm24.65.11h1.85v8.45H39c-.11 0-.15 0-.15.14v2.67c0 .11 0 .15.15.15h7.09c.11 0 .14 0 .14-.15V93.7c0-.11 0-.14-.14-.14h-1.7v-8.45h1.84v-2.87h-7.38v2.87zM38 8c0 .94 3.65-.45 4.14-.62a22 22 0 0 1 4.88-.95l2.1-.23 3.77-.3a15.85 15.85 0 0 1 2.92 0l2.53.1a42.25 42.25 0 0 1 7.95 1.41c1 .31 3.26.88 4.29 1.06.79.13 2 .37 2-.48 0-.31-.3-.55-.48-.68s-.23-.13-.37-.22a11.55 11.55 0 0 0-2.1-.9c-.81-.27-1.38-.33-1.89-.5l-2.49-1a9.46 9.46 0 0 0-.9-.31A27.68 27.68 0 0 0 58 3.44a62.47 62.47 0 0 0-6.41.4 41.41 41.41 0 0 0-7.49 1.38l-1.1.34c-1.14.32-1.74.63-2.71 1-.19.07-.33.15-.54.24-.37.14-1.75.8-1.75 1.2zm4.2 15.59a1 1 0 0 0 .26.87.67.67 0 0 0 .57.25h2.38c.34 0 .5 0 .77.05l1.53-.08c.53-.08 5.41 0 6.39 0l6.36-.05 3-.2a8.64 8.64 0 0 0 1.38-.22c.45-.11 1-.16 1-.7s-.16-.93-.61-1.08l-2.8-.6a6.91 6.91 0 0 0-1.49-.26 9.77 9.77 0 0 1 .29-1.6c0-.27.09-.51.15-.77s.38-1.31.2-1.52a2.18 2.18 0 0 0-1.58-.19c-.23.12-.3.35-.42.55l-.66.8h0 0 0l-.11.14c-.7.93-.68 2.42-1.19 2.6a18.22 18.22 0 0 1-3.27.56c-.94 0-2.63.2-3.59.2-.63 0-2.07.14-2.72.14l-2.31.11c-.59.08-1.31.06-1.81.09-.22 0-.21 0-.44.05a1.27 1.27 0 0 0-.81.16 1 1 0 0 0-.36.61zm12.38 18.94a11.21 11.21 0 0 0 .81 4.67 2.15 2.15 0 0 0 .37.51c.77.73 1.79 0 2.47-.56a5.6 5.6 0 0 0 1.18-1.45l.46-.84a7.59 7.59 0 0 0 .39-5.14 6.74 6.74 0 0 0-.29-.79 5.94 5.94 0 0 0-1.12-1.65 2.75 2.75 0 0 0-1.7-.92c-1.91 0-2.57 4-2.57 6.17zM48.56 42a5.51 5.51 0 0 0 .4 2.56 6.76 6.76 0 0 0 1.09 1.92l1.22 1.21c.28.18.82.62 1.22.62 1 0 .87-1.69.79-2.39v-2-.87l.52-5.06a2.45 2.45 0 0 0-.26-1.1c-.64-1.44-2.36 0-3 .67l-.45.51-.27.37a6.74 6.74 0 0 0-1.19 2.45 4.71 4.71 0 0 0-.07 1.11zm27.57 60.88V109c0 .11 0 .14.15.14h6v-1.21h-4.84v-1.41a22.12 22.12 0 0 0 3.64 0v-1.11a22.11 22.11 0 0 0-3.64 0V104h4.86v-1.22h-6c-.11 0-.15 0-.15.15zm-9.66 0V109c0 .11 0 .14.15.14h6v-1.21h-4.84c0-1.72-.23-1.36.78-1.36H71c.49 0 .39.14.39-1.21h-3.6V104h4.86v-1.22h-6c-.11 0-.15 0-.15.15zm-25.38 5.05a1.91 1.91 0 0 1-.82-.16 1.69 1.69 0 0 1-.76-.64 2 2 0 0 1 .6-3 2 2 0 0 1 1.7-.08 1.67 1.67 0 0 1 .58.4 2.21 2.21 0 0 1 0 2.87h0s-.06 0-.07.07l-.13.12a2.08 2.08 0 0 1-.29.19 2 2 0 0 1-.81.21zm-3.3-2.43a3.59 3.59 0 0 0 .33 2 3.39 3.39 0 0 0 5.29.81 3.58 3.58 0 0 0 .86-3 4.57 4.57 0 0 0-.19-.63 3.35 3.35 0 0 0-5.27-1.14 3.43 3.43 0 0 0-1 2zm-9.57.2v.3a3.17 3.17 0 0 0 3.09 3.16h.41a2.93 2.93 0 0 0 1-.24 2.82 2.82 0 0 0 1.65-1.46c.07-.13.51-1.07.19-1.07-2.18 0-.68 0-1.8 1a1.92 1.92 0 1 1 .54-2.07h1.41a3 3 0 0 0-.64-1.5 2.82 2.82 0 0 0-1.24-1 3.55 3.55 0 0 0-2.75 0L30 103l-.37.22a3.05 3.05 0 0 0-1.08 1.25 3.14 3.14 0 0 0-.31 1.24zm19.42-2.77v6c0 .25.29.2.53.19H49a17.25 17.25 0 0 0 0-2.62 20.33 20.33 0 0 0 3.49 0c0-1.42.26-1.16-1.16-1.16a13.48 13.48 0 0 0-2.33 0V104h4.61c.24 0 .15-.36.15-1a.85.85 0 0 0 0-.25h-5.49c-.27 0-.63-.07-.63.2zm9.42-.05V109c0 .11 0 .14.14.14h1.17v-2.47c0-.2.15-.1.77-.1h2c.95 0 .82.18.82-1a.18.18 0 0 0-.19-.19h-3.4V104h4.75v-1.22H57.2c-.11 0-.14 0-.14.15zM28.37 15.34a2.27 2.27 0 0 0 2.95 0l.78-.63.91-.88.06-.08h0l.38-.39a12.29 12.29 0 0 0 1-1c.42-.53.16-1.44-.13-1.44-1.09 0-3.22 1.24-4.13 1.79l-.78.48a1.62 1.62 0 0 0-.76 1.18l-.3 1zM72.69 20a1.69 1.69 0 0 0-1-1.6 2.51 2.51 0 0 0-2.33.19 1.64 1.64 0 0 0-.59 2.14 6.47 6.47 0 0 0 .64.91 1.24 1.24 0 0 0 .94.62A2.42 2.42 0 0 0 72.69 20zm-5.49-2.62c1.35 0 1.6-2 .34-2a1.16 1.16 0 0 0-1 .3c-.64.6.26 1.7.66 1.7z"/></svg>