<svg xmlns="http://www.w3.org/2000/svg" viewBox="0 0 110.49 110.85" fill="#fff" fill-rule="evenodd" xmlns:v="https://vecta.io/nano"><path d="M76.86 11.34a4.64 4.64 0 0 0 .68 2.23A7.22 7.22 0 0 0 79 15.4l2.24 2.13h0 0l1 1.13c.5.62.92 1.32 1.36 2a21.16 21.16 0 0 1 1.4 2.69 13 13 0 0 1 .7 2l.83 3.16a52 52 0 0 1 .82 7.14v1.27a21 21 0 0 0 .45 3.58 10.1 10.1 0 0 1-.31 6.17 29.87 29.87 0 0 1-2 5c-.25.46-.33.76-.79 1.54a19.88 19.88 0 0 1-2.53 3.1l-1.38 1.38c-.18.19-.33.28-.51.46l-5 4.74a1.69 1.69 0 0 0-.26.22 2.83 2.83 0 0 1-.25.24l-1 .85a28.06 28.06 0 0 1-2.39 1.8c-.56.39-1.17.7-1.74 1.08l-2.1 1.15a17.64 17.64 0 0 1-2.27 1 25.46 25.46 0 0 1-4.36 1.23 31.33 31.33 0 0 1-5.16.51l-3.42-.22A39.32 39.32 0 0 1 44.88 69l-2.61-1-.27-.19a2.67 2.67 0 0 1-.34-.15l-.65-.28-1.26-.58c-.43-.22-.83-.36-1.23-.61l-1.19-.66a25.08 25.08 0 0 1-2.24-1.44l-1-.81a16.42 16.42 0 0 1-3.38-4l-.35-.58-.35-.56-.15-.29a2.84 2.84 0 0 1-.18-.31l-2.45-4.93-.59-1.25a25.16 25.16 0 0 1-1.33-3.29l-.61-2.15a11.64 11.64 0 0 1 .14-6.06 12.06 12.06 0 0 1 .46-1.28l1.47-3.78a11.66 11.66 0 0 0 .52-3.7 6.83 6.83 0 0 0-.47-3.08 4.19 4.19 0 0 1-.46-1.73c-.09-1.95.29-3.74.29-5.68 0-1.23-1.26-.79-1.83-.38l-1 .7a5.2 5.2 0 0 0-1.45 1.95 28.23 28.23 0 0 0-2.23 8l-.27 1.42-.41 2.12a26.61 26.61 0 0 1-1.54 4.48c-.5 1.25-1 2.83-.36 4.09a4.07 4.07 0 0 0 .28.55l.66 1a11.4 11.4 0 0 1 .81 1.77L20 48.6c1.3 3.49 2.14 2.34 3 6l.47 2.06c.08.24.11.44.18.69a16.41 16.41 0 0 0 1 2.4c.1.19.21.36.31.52s.24.31.38.5l.75 1a15.42 15.42 0 0 0 2.89 3 24.72 24.72 0 0 0 2.44 1.88l7 4.06 1.78.8a31.57 31.57 0 0 0 7.92 2.27c.27 0 .49.08.77.11l2.43.14a3.78 3.78 0 0 0 .76 0l2.44-.13c1.95-.21 3.87-.63 5.82-1l4.19-1 2.85-.55 1.47-.23a39.42 39.42 0 0 0 4.4-.69 4.4 4.4 0 0 0 1.38-.71c.1-.08.16-.1.26-.18L78 66.71a18.32 18.32 0 0 0 1.91-1.93l1.45-1.55.81-.9 1.55-1.85c.27-.3.5-.62.76-.94l1.46-1.93.37-.51a57.22 57.22 0 0 0 3.59-5.77l.59-1.12 1.08-2.36.48-1.22c.34-.84.59-1.68.85-2.55a6.18 6.18 0 0 0 .37-2.84c-.13-.48-.48-.61-1-.72-1.15-.28-1 .07-1.22-2.23l-.34-3.06-.61-4.49a44.55 44.55 0 0 0-1.62-6.93l-.22-.6-.73-1.84c-.09-.23-.18-.37-.26-.57a25.94 25.94 0 0 0-2.16-3.8l-1.06-1.46a11.37 11.37 0 0 0-1.63-1.77l-.23-.21-.24-.19a13.74 13.74 0 0 0-3-2.08 2.86 2.86 0 0 0-1.34-.41c-.37 0-.73.13-.73.49zM64.53 46.63c0 2 .5 1.49 0 4.43l-.66 4c-.49 1.49-2.35 1.88-3.72 2.15a23.15 23.15 0 0 1-4 .25h-.62c-.47 0-.84 0-1.32-.05l-1.18-.13-3.52-.5a8.88 8.88 0 0 1-2.16-.56c-.74-.36-.79-.72-.9-1.78l-.34-2.37-.8-4.59-.41-2.26-2-11.45a14.29 14.29 0 0 0-.72-3.31c-.54-.75-2.33-.45-2.33.25a6.51 6.51 0 0 0 .15 1.21l.48 2.34 2 9.42c.24 1.16.48 3.74.66 5.07l.63 5 .49 3.83c.32 2 1.27 2.32 3.09 2.59l5.13.59h.63 2.63a37.66 37.66 0 0 0 8-.88c.76-.18 1.47-.22 2-1a8.14 8.14 0 0 0 .52-2.45c0-.4.13-.83.2-1.24l.68-3.79.21-1.3 1-6.46.36-2.61c0-.21 0-.47.08-.65l.65-4.59.37-2.59.36-2.6c.08-.64.51-1.71-1.07-1.71-1.38 0-1.13 1.57-1.26 2.19l-.31 1.78-1.22 5.67-.64 3.54c-.15.79-.58 2.56-.83 3.3a3.73 3.73 0 0 0-.26 1.14zm15.24 48.99h3.5c.22 0 .33-.62.43-1l1.51-5.52.58-2.23c.16.11 0 0 .19.49l2 7.23c.13.44.17 1 .44 1H92c.27 0 .32-.48.39-.72l2.21-8.08.48-1.81.95-3.66H92c0 .28-1.69 7.39-1.92 8.32A1.9 1.9 0 0 0 90 90l-.08.25-2.24-8.4c0-.17 0-.49-.24-.49h-3.3c0 .22-1 4-1.16 4.47l-.59 2.22-.58 2.24h-.09a6.55 6.55 0 0 0-.22-1.14l-.78-3.35-.53-2.19-.51-2.25h-4l3.79 14c.07.17.12.25.33.25zM24 95.58c.49.11 2.91 0 3.59 0 .2 0 .16-.17.15-.38v-8a2 2 0 0 1 .33.51l1.68 2.92.15.29 2.1 3.77.3.53c.11.2.18.4.47.4h3.69V81.35h-3.77v8.25c-.18-.13-2.67-4.61-3-5.22l-1.5-2.63c-.1-.19-.16-.4-.42-.4H24.1c-.24 0-.15.5-.15.73v13.5zm24.61 0a26.63 26.63 0 0 0 3.79 0V89.8h1.7c0 .19.1.14.21.32s.12.23.2.38l2.62 4.81c.07.13.13.31.27.31H61c.24 0 .06-.22 0-.37l-1.71-3.14-.12-.22L57.61 89c-.25-.44-.4-.49-.19-1a3 3 0 0 1 .25-.43l.51-.9 1-1.76 2-3.59h-3.93a4.32 4.32 0 0 1-.37.7l-2.56 4.53c-.06.13-.11.31-.27.31H52.4v-5.51h-3.79v14.23zm54.07-9.81c0 .24 1 2.94 1.11 3.4l.21.58c.07.2.15.39.19.58h-3.11c.09-.36.25-.76.37-1.13l1-2.91c.07-.18.12-.42.25-.52zm-7.28 9.85h3.69c.16 0 .22-.27.32-.6l.49-1.36c.07-.2.14-.61.36-.61H105c.26 0 .48.88.62 1.27l.38 1c0 .15 0 .27.21.27h3.74c.23 0 .12-.22.06-.35l-5.14-13.55c0-.15-.1-.37-.26-.37h-3.93c-.18 0-.24.42-.4.82l-1.38 3.62-.34.92-2.43 6.37-.88 2.29c-.08.18-.14.28.15.28zM69 85.77c.13.1.16.31.22.5l.11.29 1.27 3.77h-3.11l.93-2.81a15.53 15.53 0 0 0 .58-1.75zm-7.38 9.85h3.88c.2 0 .18-.24.32-.6l.49-1.36c.1-.3.17-.61.36-.61h4.71c.27 0 .45.82.63 1.26l.36 1c0 .15 0 .26.22.26h3.74c.28 0 0-.56-.2-1L73.27 87l-.41-1c-.14-.32-.29-.73-.41-1.09l-1.23-3.28c-.13-.38-.24-.26-1.25-.26H67l-1.2 3.09-1.19 3.09-1.67 4.49-.34.87-.66 1.77a3.73 3.73 0 0 0-.32.94zM.41 95.58c.49.11 2.91 0 3.59 0 .22 0 .15-.34.15-.58v-4.57c0-.79-.29-.63 1.7-.63.15 0 .19.17.24.29l2.25 4.15.21.38c.08.16.14.23.21.37.19.36.25.63.53.63h3.55c.29 0-.05-.47-.25-.81l-1-1.79-.25-.43-.74-1.35-1.5-2.72c-.11-.21.13-.47.34-.89l2.78-4.89.26-.47a5.09 5.09 0 0 0 .48-.92H9.05L8.5 82.4l-.22.36-.38.69-.4.71-1.2 2.11c-.41.82-.41.62-2.15.62v-5.54H.41v14.23zm48.1-67.15h2.09a7.46 7.46 0 0 1 1.46 0c.32 0 .42.05.72.05a41.88 41.88 0 0 0 5.47-.66 16.74 16.74 0 0 1 4-.36l2.3.07.72-.11 2.81-.45c.56-.07.9-.08.79-.75s0-.82-.39-1.25-1.6-.23-2.15-.23h-.83a45.3 45.3 0 0 0-3.77.25l-2.26.22-4.5.4c-.34 0-.46-.05-.78-.05h-.82-1.56c-.33 0-.44-.06-.77-.06h-.83-.72-.83l-1.59-.06c-.9-.13-2.19 0-3.13-.13l-1.59-.06c-.61 0-2.54-.24-2.62.54a1.76 1.76 0 0 0 .4 1.24 18.41 18.41 0 0 0 3.06 1l1.41.25a32.2 32.2 0 0 0 3.86.26zM14.2 84.07c0 .11 0 .14.14.14H16v8.45h-1.7c-.11 0-.14 0-.14.15v2.67c0 .11 0 .14.14.14h7.09a.18.18 0 0 0 .19-.19V93c0-.14 0-.29-.19-.29h-1.61v-8.5h1.7c.11 0 .14 0 .14-.14V81.5c0-.12 0-.15-.14-.15H14.2v2.72zm24.65.14h1.85v8.45H39c-.11 0-.15 0-.15.15v2.67c0 .11 0 .14.15.14h7.09c.11 0 .14 0 .14-.14v-2.67c0-.11 0-.15-.14-.15h-1.7v-8.45h1.84v-2.86h-7.38v2.86zM38 7.11c0 1 3.65-.44 4.14-.61a22 22 0 0 1 4.88-1l2.1-.23 3.8-.27a15.85 15.85 0 0 1 2.92 0l2.53.09a41.48 41.48 0 0 1 7.95 1.42c1 .3 3.26.88 4.29 1 .79.14 2 .38 2-.48 0-.31-.3-.54-.48-.68s-.23-.13-.37-.21a12.33 12.33 0 0 0-2.1-.91c-.81-.27-1.38-.33-1.89-.49l-2.49-1a9.43 9.43 0 0 0-.9-.32A28.23 28.23 0 0 0 58 2.55a62.52 62.52 0 0 0-6.41.39 41.42 41.42 0 0 0-7.49 1.39l-1.1.33c-1.14.33-1.74.64-2.71 1-.19.07-.33.15-.54.23-.38.17-1.73.83-1.73 1.23zm4.2 15.59a1 1 0 0 0 .26.86.68.68 0 0 0 .57.26h2.38c.34 0 .5.05.77.06l1.53-.08c.53-.08 5.41 0 6.39 0l6.36-.05 3-.2a8.64 8.64 0 0 0 1.38-.22c.45-.11 1-.17 1-.7s-.16-.94-.61-1.09l-2.8-.59a6.35 6.35 0 0 0-1.49-.26 9.89 9.89 0 0 1 .29-1.61c0-.26.09-.5.15-.77s.38-1.31.2-1.51a2.08 2.08 0 0 0-1.58-.2c-.23.11-.3.34-.42.55l-.66.8h0 0V18l-.11.13c-.7.94-.68 2.43-1.19 2.6a17.42 17.42 0 0 1-3.27.57c-.94 0-2.63.2-3.59.19-.63 0-2.07.14-2.72.15l-2.31.11c-.59.08-1.31.06-1.81.08-.22 0-.21.05-.44.05a1.27 1.27 0 0 0-.81.17 1 1 0 0 0-.36.61zm12.38 18.93a11.29 11.29 0 0 0 .81 4.68 2.15 2.15 0 0 0 .37.51c.77.72 1.79 0 2.47-.57a5.55 5.55 0 0 0 1.18-1.44 8.68 8.68 0 0 0 .46-.85 7.59 7.59 0 0 0 .39-5.14A6.58 6.58 0 0 0 60 38a5.67 5.67 0 0 0-1.12-1.65 2.75 2.75 0 0 0-1.7-.92c-1.91 0-2.57 4-2.57 6.16zm-6.02-.58a5.55 5.55 0 0 0 .4 2.57 6.71 6.71 0 0 0 1.09 1.91l1.22 1.21a2.83 2.83 0 0 0 1.22.62c1 0 .87-1.68.79-2.38V43v-.88l.57-5.12a2.51 2.51 0 0 0-.26-1.1c-.64-1.43-2.36 0-3 .67l-.45.52c-.1.12-.17.23-.27.37a6.69 6.69 0 0 0-1.19 2.44 4.78 4.78 0 0 0-.14 1.13zM76.13 102v6.06c0 .12 0 .15.15.15h6V107h-4.84v-1.41a24.57 24.57 0 0 0 3.64 0v-1.12a23.27 23.27 0 0 0-3.64 0v-1.41h4.86v-1.21h-6c-.11 0-.15 0-.15.15zm-9.66 0v6.06c0 .12 0 .15.15.15h6V107h-4.84c0-1.72-.23-1.36.78-1.36H71c.49 0 .39.13.39-1.22h-3.6v-1.36h4.86v-1.21h-6c-.11 0-.15 0-.15.15zm-25.38 5a1.91 1.91 0 0 1-.82-.15 1.82 1.82 0 0 1-.76-.64 2.33 2.33 0 0 1 .06-2.57 2 2 0 0 1 2.24-.51 1.65 1.65 0 0 1 .58.39 2.21 2.21 0 0 1 0 2.87h0a.45.45 0 0 0-.07.07l-.13.11a1.49 1.49 0 0 1-.29.2 2 2 0 0 1-.81.2zm-3.3-2.42a3.61 3.61 0 0 0 .33 2 3.38 3.38 0 0 0 5.29.8 3.56 3.56 0 0 0 .86-3 4.71 4.71 0 0 0-.19-.64 3.35 3.35 0 0 0-5.27-1.13 3.43 3.43 0 0 0-1 2zm-9.57.22v.34a3.19 3.19 0 0 0 3.09 3.16h.41a3.18 3.18 0 0 0 1-.25 2.8 2.8 0 0 0 1.65-1.45c.07-.13.51-1.07.19-1.07-2.18 0-.68 0-1.8 1a1.92 1.92 0 0 1-3.2-1.54 1.9 1.9 0 0 1 3.74-.54h1.41a3 3 0 0 0-.64-1.5 2.88 2.88 0 0 0-1.24-.94 3.5 3.5 0 0 0-2.75 0 .42.42 0 0 0-.12.07l-.37.21a3.05 3.05 0 0 0-1.08 1.25 3.15 3.15 0 0 0-.31 1.25zm19.42-2.8v6c0 .24.29.19.53.19H49a17.28 17.28 0 0 0 0-2.62 21.4 21.4 0 0 0 3.49 0c0-1.42.26-1.17-1.16-1.17a13.48 13.48 0 0 0-2.33 0v-1.41h4.61c.24 0 .15-.35.15-1v-.24h-5.49c-.27 0-.63-.07-.63.19zm9.42 0v6.06c0 .12 0 .15.14.15h1.17v-2.48c0-.19.15-.09.77-.09h2c.95 0 .82.17.82-1a.19.19 0 0 0-.19-.2h-3.4v-1.36h4.75v-1.21H57.2c-.11 0-.14 0-.14.15zM28.37 14.44a2.26 2.26 0 0 0 2.95 0l.78-.63.91-.88.06-.08h0l.38-.39a11.08 11.08 0 0 0 1-1.06c.42-.52.16-1.43-.13-1.43-1.09 0-3.22 1.23-4.13 1.78l-.78.49a1.6 1.6 0 0 0-.76 1.18l-.3 1zm44.32 4.62a1.71 1.71 0 0 0-1-1.61 2.48 2.48 0 0 0-2.33.2 1.64 1.64 0 0 0-.59 2.14 6.47 6.47 0 0 0 .64.91 1.26 1.26 0 0 0 .94.62 2.44 2.44 0 0 0 2.36-2.26zm-5.49-2.58c1.35 0 1.6-2 .34-2a1.16 1.16 0 0 0-1 .31c-.64.6.26 1.69.66 1.69z"/></svg>